<svg width="440" height="130" viewBox="0 0 440 130" xmlns="http://www.w3.org/2000/svg" role="img">
<title>AWSP — Aden Water Sector Plan</title>
<rect width="440" height="130" fill="white"/>
<defs>
  <linearGradient id="wdrop" x1="0%" y1="0%" x2="0%" y2="100%">
    <stop offset="0%" stop-color="#1B7CB8"/>
    <stop offset="100%" stop-color="#0D9B8A"/>
  </linearGradient>
  <linearGradient id="underline" x1="0%" y1="0%" x2="100%" y2="0%">
    <stop offset="0%" stop-color="#0D9B8A"/>
    <stop offset="100%" stop-color="#1B7CB8"/>
  </linearGradient>
  <linearGradient id="figTop" x1="0%" y1="0%" x2="100%" y2="100%">
    <stop offset="0%" stop-color="#1B5FA8"/>
    <stop offset="100%" stop-color="#1B8AC8"/>
  </linearGradient>
  <linearGradient id="figBot" x1="0%" y1="0%" x2="100%" y2="100%">
    <stop offset="0%" stop-color="#0D9B8A"/>
    <stop offset="100%" stop-color="#2CB5A0"/>
  </linearGradient>
</defs>
<circle cx="58" cy="17" r="8" fill="#1B5FA8"/>
<path d="M38 42 Q58 26 78 42 Q72 58 58 61 Q44 58 38 42Z" fill="url(#figTop)"/>
<circle cx="105" cy="65" r="8" fill="#1B7CB8"/>
<path d="M78 48 Q95 62 87 80 Q75 86 64 76 Q66 60 78 48Z" fill="#1B7CB8"/>
<circle cx="20" cy="95" r="7" fill="#2CB5A0"/>
<path d="M38 82 Q24 95 30 110 Q42 118 53 108 Q50 92 38 82Z" fill="url(#figBot)"/>
<circle cx="96" cy="95" r="7" fill="#2CB5A0"/>
<path d="M78 82 Q92 95 86 110 Q74 118 63 108 Q66 92 78 82Z" fill="url(#figBot)"/>
<path d="M72 28 Q98 36 103 57" fill="none" stroke="#1B7CB8" stroke-width="6" stroke-linecap="round"/>
<path d="M103 74 Q100 92 92 100" fill="none" stroke="#1B7CB8" stroke-width="6" stroke-linecap="round"/>
<path d="M14 55 Q20 32 44 26" fill="none" stroke="#2CB5A0" stroke-width="6" stroke-linecap="round"/>
<path d="M14 72 Q14 90 26 100" fill="none" stroke="#2CB5A0" stroke-width="6" stroke-linecap="round"/>
<path d="M36 110 Q58 122 80 110" fill="none" stroke="#2CB5A0" stroke-width="5" stroke-linecap="round"/>
<path d="M58 38 Q70 55 70 65 Q70 79 58 83 Q46 79 46 65 Q46 55 58 38Z" fill="url(#wdrop)"/>
<ellipse cx="53" cy="63" rx="5" ry="7" fill="white" opacity="0.3"/>
<text x="130" y="84" font-family="Arial Black,Arial,sans-serif" font-weight="900" font-size="64" fill="#1A3557" letter-spacing="-1">AWSP</text>
<line x1="130" y1="96" x2="432" y2="96" stroke="url(#underline)" stroke-width="2.5"/>
<text x="130" y="116" font-family="Arial,Helvetica,sans-serif" font-weight="400" font-size="14" fill="#1A3557" letter-spacing="0.8">Aden Water Sector Plan</text>
</svg>
