<svg width="200" height="60" viewBox="0 0 200 60" xmlns="http://www.w3.org/2000/svg" role="img">
<title>AWSP — Aden Water Sector Plan</title>
<rect width="200" height="60" fill="white"/>
<defs>
  <linearGradient id="wd2" x1="0%" y1="0%" x2="0%" y2="100%">
    <stop offset="0%" stop-color="#1B7CB8"/>
    <stop offset="100%" stop-color="#0D9B8A"/>
  </linearGradient>
</defs>
<circle cx="28" cy="8" r="5" fill="#1B5FA8"/>
<path d="M17 21 Q28 14 39 21 Q36 29 28 31 Q20 29 17 21Z" fill="#1B5FA8"/>
<circle cx="52" cy="30" r="5" fill="#1B7CB8"/>
<path d="M38 22 Q47 30 42 39 Q35 43 28 37 Q30 28 38 22Z" fill="#1B7CB8"/>
<circle cx="8" cy="44" r="4.5" fill="#2CB5A0"/>
<path d="M17 37 Q9 44 12 52 Q20 57 27 51 Q25 42 17 37Z" fill="#2CB5A0"/>
<circle cx="48" cy="44" r="4.5" fill="#2CB5A0"/>
<path d="M39 37 Q47 44 44 52 Q36 57 29 51 Q31 42 39 37Z" fill="#2CB5A0"/>
<path d="M35 14 Q50 19 51 28" fill="none" stroke="#1B7CB8" stroke-width="4" stroke-linecap="round"/>
<path d="M51 33 Q49 43 45 46" fill="none" stroke="#1B7CB8" stroke-width="4" stroke-linecap="round"/>
<path d="M6 26 Q10 14 21 12" fill="none" stroke="#2CB5A0" stroke-width="4" stroke-linecap="round"/>
<path d="M6 33 Q6 43 11 47" fill="none" stroke="#2CB5A0" stroke-width="4" stroke-linecap="round"/>
<path d="M15 52 Q28 58 41 52" fill="none" stroke="#2CB5A0" stroke-width="3.5" stroke-linecap="round"/>
<path d="M28 18 Q35 27 35 33 Q35 40 28 43 Q21 40 21 33 Q21 27 28 18Z" fill="url(#wd2)"/>
<ellipse cx="25" cy="32" rx="3" ry="4" fill="white" opacity="0.3"/>
<text x="63" y="43" font-family="Arial Black,Arial,sans-serif" font-weight="900" font-size="36" fill="#1A3557" letter-spacing="-0.5">AWSP</text>
</svg>
